<?xml version="1.0" standalone="no"?>
<!DOCTYPE svg PUBLIC "-//W3C//DTD SVG 20010904//EN"
 "http://www.w3.org/TR/2001/REC-SVG-20010904/DTD/svg10.dtd">
<svg version="1.0" xmlns="http://www.w3.org/2000/svg"
 width="1300.000000pt" height="1083.000000pt" viewBox="0 0 1300.000000 1083.000000"
 preserveAspectRatio="xMidYMid meet">

<g transform="translate(0.000000,1083.000000) scale(0.100000,-0.100000)"
fill="#000000" stroke="none">
<path d="M6992 8362 c-14 -9 -27 -50 -42 -125 -14 -70 -52 -148 -69 -142 -9 4
-11 0 -7 -10 3 -10 2 -13 -4 -10 -17 10 -112 -17 -98 -28 8 -5 2 -6 -17 -3
-16 3 -48 7 -70 8 -22 1 -48 8 -57 16 -10 8 -18 12 -18 8 0 -4 -12 6 -26 23
-14 17 -31 28 -36 24 -6 -3 -8 -1 -5 4 6 9 -73 93 -87 93 -5 0 -44 -21 -76
-41 -14 -9 -38 -24 -53 -33 -28 -17 -28 -18 -10 -36 10 -9 22 -15 28 -12 17
10 46 9 52 -2 3 -6 3 -8 -2 -4 -11 10 -47 -11 -39 -23 4 -7 10 -6 19 1 9 8 15
8 20 0 6 -10 -1 -14 -20 -10 -5 1 1 -9 15 -22 14 -14 29 -22 35 -19 18 9 46 8
52 -3 3 -6 3 -8 -2 -4 -11 10 -47 -11 -39 -23 4 -7 10 -6 19 1 9 8 15 8 20 0
6 -10 0 -14 -20 -11 -5 1 2 -8 18 -20 38 -29 34 -45 -5 -17 -18 12 -39 21 -47
20 -9 -2 -12 2 -8 13 4 10 -5 26 -26 44 -25 23 -36 27 -50 19 -16 -8 -17 -7
-7 11 9 18 7 25 -17 47 -15 14 -29 21 -31 16 -1 -5 9 -51 23 -100 14 -50 25
-105 25 -122 0 -43 -22 -90 -58 -124 -17 -16 -28 -34 -25 -40 3 -6 3 -8 -1 -4
-5 4 -26 -4 -47 -18 -21 -13 -39 -22 -39 -19 0 3 -9 1 -20 -5 -15 -8 -38 -5
-97 15 -43 14 -90 25 -105 25 -16 0 -28 5 -28 10 0 21 -17 8 -38 -29 l-22 -38
45 -6 c25 -2 54 -12 63 -20 9 -9 21 -16 25 -15 5 0 12 -4 15 -8 4 -4 1 -3 -7
1 -11 6 -13 4 -7 -11 5 -10 11 -27 13 -36 3 -10 10 -18 15 -18 5 0 6 -5 3 -10
-9 -14 17 -81 30 -77 5 2 9 15 8 28 -1 13 0 19 3 12 3 -7 12 -9 20 -6 19 7 18
-6 -3 -29 -13 -14 -13 -18 -2 -18 21 1 62 38 54 50 -9 14 -27 12 -20 -2 4 -7
0 -4 -9 6 -16 19 -12 41 5 31 5 -3 25 10 44 30 20 19 30 35 24 35 -17 0 -5 11
15 14 22 3 59 53 50 68 -5 10 -4 10 6 1 19 -18 21 -41 4 -47 -20 -8 -17 -26 4
-20 13 5 14 4 3 -4 -7 -5 -9 -12 -5 -14 5 -3 3 -3 -3 -2 -7 2 -13 -1 -13 -6 0
-6 17 -10 38 -10 20 0 65 -13 101 -30 35 -17 67 -28 70 -24 3 4 1 9 -5 11 -17
6 -5 42 17 54 13 6 19 6 19 -1 0 -5 -4 -10 -9 -10 -10 0 -24 -30 -17 -37 2 -2
21 12 42 32 22 20 60 50 87 67 26 17 47 35 47 40 0 4 3 7 8 6 11 -2 62 24 62
33 0 4 -8 12 -17 18 -10 5 -14 13 -9 18 5 4 11 2 13 -5 3 -6 9 -9 14 -6 6 3 5
11 -2 20 -8 10 -15 11 -24 4 -9 -8 -21 -4 -41 13 -16 13 -35 22 -43 19 -10 -3
-12 0 -8 12 7 17 -37 69 -48 57 -4 -3 -5 0 -3 8 1 7 -5 15 -15 16 -13 2 -17
-1 -13 -11 3 -7 2 -13 -2 -12 -4 1 -15 -2 -24 -6 -14 -6 -15 -12 -8 -27 9 -15
8 -17 -7 -12 -12 5 -15 2 -10 -10 3 -9 1 -19 -5 -23 -7 -4 -8 -3 -4 4 4 7 2
12 -4 12 -6 0 -9 4 -5 9 3 5 1 12 -4 15 -5 4 -8 -1 -7 -11 2 -9 -6 -25 -16
-35 -11 -11 -17 -26 -14 -33 3 -10 0 -12 -11 -8 -12 5 -15 2 -10 -10 3 -9 1
-19 -5 -23 -7 -4 -8 -3 -4 4 4 7 3 12 -2 12 -11 0 -10 44 2 48 4 2 11 0 14 -4
4 -4 1 -4 -7 1 -10 5 -12 4 -7 -4 4 -6 12 -9 17 -5 5 3 7 10 3 15 -6 10 55 93
63 85 3 -3 14 5 23 17 13 16 15 24 7 29 -7 4 2 6 20 4 21 -3 30 -1 27 7 -2 7
10 27 26 46 17 18 30 32 31 30 0 -2 2 -12 4 -21 2 -10 -5 -20 -16 -23 -11 -4
-17 -11 -13 -16 3 -5 0 -8 -7 -7 -7 2 -13 -4 -14 -12 0 -19 47 -68 60 -61 18
9 46 8 52 -3 3 -6 3 -8 -2 -4 -11 10 -47 -11 -39 -23 4 -7 10 -6 19 1 9 8 15
8 20 0 6 -10 -1 -14 -20 -10 -5 1 0 -8 12 -19 13 -12 32 -19 50 -17 28 3 90
-21 80 -31 -3 -2 -15 0 -26 7 -21 10 -27 4 -22 -23 1 -5 -4 -5 -10 -1 -8 4 -9
3 -5 -5 4 -6 10 -10 14 -7 35 19 90 39 156 56 43 11 86 26 94 32 13 11 14 11
7 -1 -6 -11 -1 -12 26 -7 41 8 155 7 188 -1 19 -5 22 -3 16 8 -7 11 -6 12 6 3
8 -7 30 -15 49 -19 126 -25 230 -68 333 -136 31 -21 64 -36 71 -33 8 3 17 1
21 -5 4 -7 -1 -8 -12 -4 -17 6 -17 5 1 -15 19 -22 43 -31 31 -12 -3 6 -1 10 5
10 6 0 9 -8 6 -17 -3 -12 4 -25 19 -36 14 -10 25 -13 25 -7 0 6 -7 13 -15 16
-8 4 -15 10 -15 15 0 5 9 4 20 -3 13 -8 19 -20 16 -31 -3 -11 14 -43 45 -83
27 -36 49 -70 49 -76 0 -6 7 -5 17 3 15 13 15 12 6 -6 -9 -15 -8 -26 4 -49 13
-25 17 -27 25 -13 5 11 5 25 -2 39 -11 22 -11 22 5 3 8 -11 13 -26 9 -35 -16
-38 -17 -53 -4 -45 8 5 11 4 7 -1 -3 -6 5 -43 19 -84 13 -40 27 -102 30 -137
4 -34 9 -61 13 -59 13 8 -4 -192 -25 -286 -3 -15 -5 -30 -5 -33 0 -2 -11 -29
-24 -60 -14 -30 -22 -63 -19 -72 4 -13 3 -14 -4 -5 -6 10 -15 0 -30 -36 -12
-27 -28 -55 -37 -62 -11 -9 -12 -16 -5 -25 8 -10 6 -13 -7 -11 -11 0 -17 -5
-15 -15 1 -9 -6 -23 -15 -30 -17 -13 -17 -12 -4 6 7 11 -5 0 -27 -25 -22 -25
-38 -48 -36 -52 3 -5 -2 -8 -10 -8 -20 0 -48 -29 -40 -42 4 -6 2 -8 -4 -4 -6
3 -33 -11 -61 -31 -28 -21 -45 -40 -39 -44 7 -4 7 -9 0 -13 -6 -3 -12 -1 -14
4 -2 6 -30 -2 -66 -20 -34 -16 -67 -30 -73 -30 -5 0 -7 -5 -3 -12 4 -6 3 -8
-2 -5 -5 3 -52 -6 -104 -20 -87 -22 -108 -24 -245 -20 -123 4 -165 9 -230 29
-44 14 -87 27 -95 29 -8 2 -17 7 -20 10 -16 18 -124 67 -138 62 -11 -3 -13 -2
-5 4 8 6 -5 22 -45 53 -31 24 -61 43 -65 42 -5 -1 -6 1 -3 6 3 5 -8 22 -25 38
-16 15 -46 52 -66 81 -20 29 -40 50 -45 47 -5 -3 -8 0 -7 7 5 21 -53 139 -64
132 -6 -3 -7 -1 -3 5 4 6 -2 41 -13 77 -11 35 -23 87 -27 115 -6 42 -13 56
-45 84 -44 37 -145 90 -158 81 -5 -3 -11 0 -13 7 -3 9 -36 13 -114 13 -111 0
-190 -17 -178 -37 4 -7 2 -8 -4 -4 -6 4 -21 2 -32 -4 -15 -8 -20 -21 -20 -55
0 -24 5 -47 10 -50 24 -15 155 -45 169 -39 14 5 13 7 -4 15 l-20 9 20 -3 c11
-2 19 -8 18 -15 -3 -12 55 -48 70 -44 5 1 6 -1 3 -6 -3 -5 4 -26 14 -48 11
-23 23 -73 26 -116 6 -71 5 -80 -20 -122 -15 -25 -31 -46 -35 -46 -13 0 -21
-29 -10 -35 5 -4 8 -1 7 6 -2 6 4 14 12 16 12 4 12 3 2 -5 -8 -5 -13 -12 -13
-16 2 -15 0 -16 -16 -8 -14 8 -27 1 -57 -28 -35 -34 -37 -39 -26 -61 7 -13 16
-26 19 -29 4 -3 12 -16 19 -30 30 -61 53 -94 68 -96 9 -1 50 9 92 23 132 43
180 33 264 -54 71 -73 82 -120 53 -218 -9 -27 -13 -55 -10 -63 2 -7 1 -11 -4
-8 -5 3 -11 -4 -15 -17 -6 -27 3 -69 14 -62 4 3 11 -2 14 -11 3 -8 10 -12 16
-9 5 3 10 1 10 -5 0 -7 7 -9 16 -6 8 3 13 2 10 -2 -2 -4 18 -20 46 -35 l50
-28 55 55 c30 30 52 60 48 65 -3 7 0 8 9 5 9 -3 16 -2 16 4 0 5 16 17 36 27
52 24 165 18 223 -12 35 -18 47 -21 53 -11 6 8 7 5 3 -9 -6 -21 8 -33 18 -15
2 4 2 1 0 -7 -2 -7 5 -43 16 -80 10 -36 22 -81 25 -100 10 -57 19 -61 126 -61
66 0 101 4 107 13 16 20 34 107 28 130 -5 18 -4 19 4 7 9 -12 11 -10 12 10 1
14 2 31 2 38 -1 7 13 27 31 44 17 18 30 34 29 38 -1 3 6 6 15 7 9 1 31 5 47 9
29 8 139 9 200 2 20 -2 30 -9 30 -19 0 -16 113 -139 128 -139 5 0 5 4 2 10 -3
6 1 7 9 4 9 -3 16 -1 16 5 0 6 3 10 8 9 15 -3 61 25 55 35 -4 6 0 8 9 4 9 -3
25 3 36 13 11 10 22 16 25 13 4 -3 9 7 13 22 4 16 2 31 -6 38 -10 10 -12 7 -7
-12 5 -18 3 -21 -6 -12 -8 8 -9 16 -1 29 6 9 8 24 3 32 -16 31 -22 57 -26 118
-4 50 -1 69 16 97 19 33 19 34 1 58 l-19 24 25 -3 c14 -1 29 -6 32 -10 4 -4
-1 -4 -10 -1 -20 7 -25 -8 -7 -19 17 -10 34 12 22 28 -19 24 -25 94 -11 122 7
14 82 95 166 179 97 98 152 161 152 174 0 11 7 39 15 62 8 22 11 41 8 41 -4 0
-2 5 5 12 13 13 16 32 4 24 -4 -2 -8 3 -8 13 0 10 6 18 12 18 7 0 10 -6 7 -12
-2 -7 21 0 53 16 31 16 66 29 78 29 12 0 39 9 60 21 21 11 35 15 31 10 -9 -16
7 -13 33 5 20 13 22 24 22 95 0 56 -4 79 -12 79 -10 0 -10 2 0 9 26 16 -15 38
-119 62 -109 26 -154 55 -165 109 -3 14 -9 32 -13 40 -4 8 -9 43 -10 78 -2 52
2 70 24 107 14 25 30 45 35 45 6 0 10 5 10 11 0 5 -5 7 -12 3 -7 -4 -8 -3 -4
4 4 6 12 9 20 6 7 -3 32 16 55 41 l42 45 -37 68 c-68 123 -68 123 -117 107
-23 -7 -62 -18 -87 -26 -25 -7 -50 -16 -55 -20 -6 -4 -32 -2 -59 4 -37 8 -61
24 -106 66 -32 31 -61 66 -65 79 -3 12 -10 20 -14 18 -12 -8 4 94 29 182 20
71 21 85 9 97 -26 25 -150 86 -161 79 -7 -4 -8 -3 -4 4 18 29 -11 6 -82 -63
-42 -41 -82 -75 -89 -75 -7 0 -13 -5 -13 -12 0 -6 -3 -9 -6 -5 -3 3 -16 2 -29
-3 -13 -5 -40 -4 -64 1 -45 10 -79 1 -45 -12 13 -5 7 -7 -21 -6 -22 0 -34 2
-26 5 11 4 11 6 0 14 -10 6 -7 7 9 3 12 -3 22 -2 22 3 0 5 -14 12 -31 16 -17
3 -46 21 -63 38 -27 27 -37 50 -57 133 -13 55 -29 106 -36 113 -13 14 -180 17
-201 4z m27 -30 c-1 -15 -2 -15 -6 1 -2 9 -9 14 -15 11 -7 -4 -8 -2 -4 5 10
15 26 4 25 -17z m18 6 c-3 -8 -6 -5 -6 6 -1 11 2 17 5 13 3 -3 4 -12 1 -19z
m761 -187 c3 -8 -1 -12 -9 -9 -7 2 -15 10 -17 17 -3 8 1 12 9 9 7 -2 15 -10
17 -17z m-565 -21 c3 -11 1 -18 -4 -14 -5 3 -9 12 -9 20 0 20 7 17 13 -6z
m446 -3 c0 -8 -2 -8 -6 1 -4 10 -8 10 -21 0 -15 -12 -16 -11 -3 4 14 19 32 15
30 -5z m196 -7 c4 -6 -1 -7 -11 -3 -12 4 -15 3 -10 -5 5 -8 2 -10 -9 -5 -13 5
-14 7 -3 14 17 11 26 11 33 -1z m-1285 -63 c0 -5 6 -7 13 -4 8 3 20 1 28 -4
12 -8 11 -11 -3 -22 -12 -9 -13 -18 -7 -30 8 -13 6 -15 -7 -10 -13 5 -16 3
-11 -10 3 -9 1 -19 -5 -23 -7 -4 -8 -3 -4 4 4 7 3 12 -2 12 -5 0 -8 18 -7 40
1 26 -2 39 -9 37 -7 -3 -11 8 -11 25 -1 27 0 28 12 12 7 -10 13 -22 13 -27z
m280 3 c8 -5 11 -10 5 -10 -5 0 -17 5 -25 10 -8 5 -10 10 -5 10 6 0 17 -5 25
-10z m716 -5 c-11 -8 -25 -15 -30 -15 -6 1 0 7 14 15 32 19 40 18 16 0z m-259
-11 c-3 -3 -12 -4 -19 -1 -8 3 -5 6 6 6 11 1 17 -2 13 -5z m530 -61 c-3 -10
-5 -2 -5 17 0 19 2 27 5 18 2 -10 2 -26 0 -35z m-1487 13 c0 -3 -4 -8 -10 -11
-5 -3 -10 -1 -10 4 0 6 5 11 10 11 6 0 10 -2 10 -4z m7 -58 c-3 -8 -6 -5 -6 6
-1 11 2 17 5 13 3 -3 4 -12 1 -19z m68 -36 c-3 -3 -11 0 -18 7 -9 10 -8 11 6
5 10 -3 15 -9 12 -12z m-93 -55 c-8 -9 -12 -20 -8 -24 4 -4 11 -1 16 7 11 17
13 9 4 -14 -10 -25 -34 -19 -34 9 0 14 5 25 10 25 6 0 10 12 11 28 0 24 1 24
9 7 5 -13 3 -26 -8 -38z m795 -13 c-3 -3 -12 -4 -19 -1 -8 3 -5 6 6 6 11 1 17
-2 13 -5z m704 -27 c-10 -9 -11 -8 -5 6 3 10 9 15 12 12 3 -3 0 -11 -7 -18z
m-1527 -15 c3 -5 -1 -9 -9 -9 -8 0 -12 4 -9 9 3 4 7 8 9 8 2 0 6 -4 9 -8z m11
-55 c1 -15 -34 -41 -42 -33 -4 3 1 14 10 24 20 22 23 39 4 20 -26 -26 -38 -56
-25 -64 7 -4 8 -3 4 4 -4 7 -5 12 -2 12 3 0 10 -9 16 -20 9 -16 8 -19 -7 -13
-12 5 -15 2 -10 -10 3 -9 1 -19 -5 -23 -7 -4 -8 -3 -4 4 4 7 3 12 -1 12 -5 0
-9 16 -9 35 0 19 4 35 9 35 5 0 5 10 2 23 -4 14 -3 18 3 9 7 -10 11 -10 22 3
14 17 35 6 35 -18z m1180 -15 c-3 -3 -11 0 -18 7 -9 10 -8 11 6 5 10 -3 15 -9
12 -12z m-1594 -25 c-7 -7 -14 -8 -21 -1 -6 6 -2 10 12 11 16 2 18 -1 9 -10z
m685 -20 c6 -8 3 -8 -9 1 -9 8 -20 11 -25 8 -5 -3 -9 1 -9 9 0 16 31 4 43 -18z
m1658 18 c3 -8 1 -15 -4 -15 -6 0 -10 7 -10 15 0 8 2 15 4 15 2 0 6 -7 10 -15z
m-269 -15 c16 0 17 -2 6 -9 -17 -11 -51 4 -51 21 0 9 3 9 12 0 7 -7 21 -12 33
-12z m-2100 0 c3 -6 -1 -7 -9 -4 -18 7 -21 14 -7 14 6 0 13 -4 16 -10z m175
-10 c15 -5 18 -8 8 -9 -9 -1 -25 -4 -35 -7 -14 -5 -15 -4 -4 4 11 8 10 11 -5
15 -10 2 -12 5 -4 5 8 0 26 -4 40 -8z m95 -10 c3 -6 -1 -7 -9 -4 -18 7 -21 14
-7 14 6 0 13 -4 16 -10z m1962 4 c-3 -3 -12 -4 -19 -1 -8 3 -5 6 6 6 11 1 17
-2 13 -5z m-167 -14 c8 -5 11 -10 5 -10 -5 0 -17 5 -25 10 -8 5 -10 10 -5 10
6 0 17 -5 25 -10z m145 -10 c3 -6 -1 -7 -9 -4 -18 7 -21 14 -7 14 6 0 13 -4
16 -10z m-1599 -18 c8 -5 7 -11 -4 -22 -14 -13 -15 -12 -9 2 3 9 1 19 -6 22
-7 2 -7 5 -2 5 6 0 15 -3 21 -7z m-466 -113 c0 -6 -4 -7 -10 -4 -5 3 -10 11
-10 16 0 6 5 7 10 4 6 -3 10 -11 10 -16z m1770 -10 c0 -6 -4 -7 -10 -4 -5 3
-10 11 -10 16 0 6 5 7 10 4 6 -3 10 -11 10 -16z m78 -164 c-3 -3 -9 2 -12 12
-6 14 -5 15 5 6 7 -7 10 -15 7 -18z m69 -117 c-3 -7 -5 -2 -5 12 0 14 2 19 5
13 2 -7 2 -19 0 -25z m294 -131 c-10 -9 -11 -8 -5 6 3 10 9 15 12 12 3 -3 0
-11 -7 -18z m236 -63 c-3 -3 -12 -4 -19 -1 -8 3 -5 6 6 6 11 1 17 -2 13 -5z
m33 -8 c0 -3 -4 -8 -10 -11 -5 -3 -10 -1 -10 4 0 6 5 11 10 11 6 0 10 -2 10
-4z m-35 -17 c11 -16 1 -19 -13 -3 -7 8 -8 14 -3 14 5 0 13 -5 16 -11z m-2660
-49 c-27 -12 -43 -12 -25 0 8 5 22 9 30 9 10 0 8 -3 -5 -9z m152 -26 c-3 -3
-12 -4 -19 -1 -8 3 -5 6 6 6 11 1 17 -2 13 -5z m123 -74 c0 -5 -5 -10 -11 -10
-5 0 -7 5 -4 10 3 6 8 10 11 10 2 0 4 -4 4 -10z m50 6 c0 -3 -4 -8 -10 -11 -5
-3 -10 -1 -10 4 0 6 5 11 10 11 6 0 10 -2 10 -4z m-285 -36 c-3 -5 -14 -10
-23 -9 -14 0 -13 2 3 9 27 11 27 11 20 0z m50 0 c3 -5 1 -10 -4 -10 -6 0 -11
5 -11 10 0 6 2 10 4 10 3 0 8 -4 11 -10z m2432 -6 c-3 -3 -12 -4 -19 -1 -8 3
-5 6 6 6 11 1 17 -2 13 -5z m56 -11 c3 -5 -16 -9 -42 -9 -35 -1 -40 0 -21 6
34 11 58 12 63 3z m-2493 -43 c8 -5 11 -10 5 -10 -5 0 -17 5 -25 10 -8 5 -10
10 -5 10 6 0 17 -5 25 -10z m277 -62 c-3 -8 -6 -5 -6 6 -1 11 2 17 5 13 3 -3
4 -12 1 -19z m20 -10 c-3 -7 -5 -2 -5 12 0 14 2 19 5 13 2 -7 2 -19 0 -25z
m2003 -39 c0 -12 -4 -18 -11 -13 -8 5 -10 -3 -7 -25 3 -20 1 -28 -5 -22 -12
12 0 81 13 81 6 0 10 -9 10 -21z m-2233 -136 c-3 -10 -5 -4 -5 12 0 17 2 24 5
18 2 -7 2 -21 0 -30z m297 23 c-3 -8 -1 -17 5 -21 6 -3 11 -14 10 -23 0 -11
-4 -9 -11 8 -10 24 -10 24 -18 5 -10 -24 -12 -9 -4 23 4 12 10 22 15 22 5 0 6
-6 3 -14z m1623 -28 c0 -7 3 -26 7 -43 6 -27 5 -26 -8 5 -7 19 -11 38 -9 43 6
10 10 9 10 -5z m-1916 -45 c-12 -20 -14 -14 -5 12 4 9 9 14 11 11 3 -2 0 -13
-6 -23z m-144 -183 c-1 -11 -5 -20 -10 -20 -5 0 -5 10 -2 23 5 17 4 18 -4 7
-5 -8 -13 -11 -18 -7 -8 9 17 28 28 21 4 -2 7 -13 6 -24z m605 12 c-7 -2 -10
-7 -8 -11 3 -4 -4 -7 -14 -7 -18 0 -18 1 -2 17 9 9 21 14 27 11 5 -3 4 -7 -3
-10z m74 -70 c1 -7 0 -8 -3 -2 -8 17 -25 11 -18 -7 5 -14 3 -15 -6 -6 -13 13
-3 36 14 30 6 -2 12 -9 13 -15z m1160 -20 c1 -7 0 -8 -2 -3 -3 6 -12 7 -21 4
-11 -4 -14 -3 -9 6 9 14 29 10 32 -7z m-1774 -30 c-3 -9 -1 -13 4 -9 6 3 11
-3 11 -14 2 -28 -11 -23 -23 9 -9 22 -8 29 2 29 7 0 10 -7 6 -15z m265 2 c-3
-3 -12 -4 -19 -1 -8 3 -5 6 6 6 11 1 17 -2 13 -5z m-210 -30 c-3 -3 -12 -4
-19 -1 -8 3 -5 6 6 6 11 1 17 -2 13 -5z m683 2 c0 -2 -8 -10 -17 -17 -16 -13
-17 -12 -4 4 13 16 21 21 21 13z m955 -26 c3 -6 -1 -7 -9 -4 -18 7 -21 14 -7
14 6 0 13 -4 16 -10z m-1277 -65 c-3 -3 -9 2 -12 12 -6 14 -5 15 5 6 7 -7 10
-15 7 -18z m1097 5 c13 -6 15 -9 5 -9 -8 0 -22 4 -30 9 -18 12 -2 12 25 0z
m-25 -16 c0 -2 -7 -4 -15 -4 -8 0 -15 4 -15 10 0 5 7 7 15 4 8 -4 15 -8 15
-10z m-1013 -101 c-3 -10 -5 -2 -5 17 0 19 2 27 5 18 2 -10 2 -26 0 -35z m338
-113 c3 -5 -1 -10 -9 -10 -9 0 -16 5 -16 10 0 6 4 10 9 10 6 0 13 -4 16 -10z
m680 -9 c7 -12 -12 -24 -25 -16 -11 7 -4 25 10 25 5 0 11 -4 15 -9z m465 -56
c0 -8 -3 -16 -7 -18 -5 -3 -8 5 -8 18 0 13 3 21 8 18 4 -2 7 -10 7 -18z m-183
-56 c-3 -10 -1 -20 4 -23 5 -2 4 -3 -3 -2 -7 2 -13 7 -13 12 0 5 -3 14 -7 20
-4 6 0 11 8 11 10 0 14 -7 11 -18z m-1182 -20 c-1 -10 -3 -20 -6 -21 -2 -2 -3
-1 -2 1 1 2 -2 11 -7 21 -6 12 -5 17 4 17 7 0 12 -8 11 -18z m1340 11 c3 -6
-1 -7 -9 -4 -18 7 -21 14 -7 14 6 0 13 -4 16 -10z m-1415 -32 c0 -6 -6 -5 -15
2 -8 7 -15 14 -15 16 0 2 7 1 15 -2 8 -4 15 -11 15 -16z m791 -1 c-10 -9 -11
-8 -5 6 3 10 9 15 12 12 3 -3 0 -11 -7 -18z m566 9 c0 -8 -6 -12 -15 -9 -11 5
-11 7 0 14 7 5 13 9 14 9 0 0 1 -6 1 -14z m-760 -168 c-3 -8 -6 -5 -6 6 -1 11
2 17 5 13 3 -3 4 -12 1 -19z"/>
<path d="M6605 8042 c-5 -4 -11 -17 -11 -30 -1 -12 1 -21 3 -18 3 2 5 8 5 13
0 4 4 16 9 26 11 19 9 21 -6 9z"/>
<path d="M6426 7851 c-4 -5 -2 -12 3 -15 5 -4 12 -2 15 3 4 5 2 12 -3 15 -5 4
-12 2 -15 -3z"/>
<path d="M4565 7698 c-45 -16 -82 -55 -94 -101 -9 -31 -11 -392 -9 -1349 3
-1302 3 -1307 24 -1334 11 -15 33 -37 48 -48 27 -21 38 -21 750 -24 l722 -2
-3 -58 c-4 -59 -17 -162 -29 -219 l-6 -33 173 0 173 0 -30 33 -29 32 35 -32
c32 -30 41 -32 115 -35 86 -3 94 -10 81 -64 l-6 -24 -320 0 c-305 0 -320 -1
-330 -19 -5 -11 -10 -34 -10 -51 0 -17 5 -40 10 -51 10 -18 25 -19 327 -19
283 0 318 2 335 17 18 16 17 18 -29 67 l-48 51 50 -47 50 -48 50 48 50 47 -48
-51 c-46 -49 -47 -51 -29 -67 16 -15 48 -17 270 -17 138 0 253 4 256 9 12 20
16 79 7 104 -8 21 -17 27 -42 27 -83 0 -137 134 -139 343 l0 57 715 0 c770 0
743 -2 791 52 45 49 46 69 41 611 -3 282 -6 513 -6 515 -1 2 -13 -9 -28 -23
-37 -34 -85 -48 -144 -43 l-49 5 0 -297 c0 -252 -2 -299 -15 -303 -8 -4 -617
-5 -1354 -4 -1189 2 -1338 0 -1328 -13 10 -13 10 -13 -4 -2 -13 10 -109 13
-418 13 l-401 1 2 1062 3 1061 431 3 432 2 7 48 c9 59 38 138 61 163 17 19 6
19 -507 18 -337 0 -535 -4 -554 -11z m1011 -2420 l29 -33 -32 29 c-31 28 -38
36 -30 36 2 0 16 -15 33 -32z m1914 29 c0 -2 -12 -14 -27 -28 l-28 -24 24 28
c23 25 31 32 31 24z m-1834 -109 l29 -33 -32 29 c-31 28 -38 36 -30 36 2 0 16
-15 33 -32z m1754 29 c0 -2 -12 -14 -27 -28 l-28 -24 24 28 c23 25 31 32 31
24z m-1674 -109 l29 -33 -32 29 c-31 28 -38 36 -30 36 2 0 16 -15 33 -32z
m1594 29 c0 -2 -12 -14 -27 -28 l-28 -24 24 28 c23 25 31 32 31 24z m-1514
-109 l29 -33 -32 29 c-18 17 -33 31 -33 33 0 8 8 1 36 -29z m1434 29 c0 -2
-12 -14 -27 -28 l-28 -24 24 28 c23 25 31 32 31 24z m-1354 -109 l29 -33 -32
29 c-18 17 -33 31 -33 33 0 8 8 1 36 -29z m1274 29 c0 -2 -12 -14 -27 -28
l-28 -24 24 28 c23 25 31 32 31 24z m-1194 -109 l29 -33 -32 29 c-18 17 -33
31 -33 33 0 8 8 1 36 -29z m1114 29 c0 -2 -12 -14 -27 -28 l-28 -24 24 28 c23
25 31 32 31 24z m-1034 -109 l29 -33 -32 29 c-31 28 -38 36 -30 36 2 0 16 -15
33 -32z m80 -80 l29 -33 -32 29 c-18 17 -33 31 -33 33 0 8 8 1 36 -29z m80
-80 l29 -33 -32 29 c-31 28 -38 36 -30 36 2 0 16 -15 33 -32z m634 29 c0 -2
-12 -14 -27 -28 l-28 -24 24 28 c23 25 31 32 31 24z m-80 -80 c0 -2 -12 -14
-27 -28 l-28 -24 24 28 c23 25 31 32 31 24z m-80 -80 c0 -2 -12 -14 -27 -28
l-28 -24 24 28 c23 25 31 32 31 24z"/>
<path d="M6205 7610 c-4 -6 -12 -7 -18 -3 -7 4 -5 -2 3 -13 8 -10 11 -16 7
-13 -4 3 -24 -9 -44 -28 -26 -25 -33 -37 -25 -45 8 -8 17 -1 32 26 12 20 26
34 30 31 4 -3 13 2 20 10 7 8 9 15 4 15 -5 0 -3 4 5 9 8 5 9 11 3 15 -6 3 -13
2 -17 -4z"/>
<path d="M8086 6345 c-71 -73 -133 -140 -138 -149 -5 -9 -5 -23 1 -35 6 -10 7
-21 4 -25 -10 -10 2 -7 43 10 37 16 118 16 154 0 12 -5 16 1 18 25 5 67 57
128 133 157 45 17 47 18 28 31 -17 10 -20 10 -13 -1 4 -7 4 -10 0 -6 -4 3 -8
10 -8 15 1 13 -30 43 -44 43 -7 0 -16 5 -20 12 -5 7 -3 8 6 3 8 -5 4 6 -9 23
-12 18 -23 32 -24 31 -1 -1 -60 -61 -131 -134z m144 95 c0 -5 -5 -10 -11 -10
-5 0 -7 5 -4 10 3 6 8 10 11 10 2 0 4 -4 4 -10z m-237 -253 c3 -7 -3 -13 -13
-13 -10 0 -16 6 -13 13 3 7 9 13 13 13 4 0 10 -6 13 -13z m164 -13 c-3 -3 -12
-4 -19 -1 -8 3 -5 6 6 6 11 1 17 -2 13 -5z"/>
<path d="M6500 4315 c-11 -13 -8 -15 15 -15 23 0 26 2 15 15 -7 8 -14 15 -15
15 -1 0 -8 -7 -15 -15z"/>
<path d="M3370 3900 c-231 -42 -372 -218 -357 -446 10 -173 105 -300 272 -364
84 -33 243 -34 329 -2 63 23 166 95 166 115 0 7 -25 34 -55 60 l-54 47 -44
-33 c-58 -45 -122 -61 -199 -53 -138 14 -229 117 -228 258 1 111 45 190 129
233 98 49 222 39 295 -25 18 -17 38 -30 42 -30 5 1 33 23 63 49 38 34 52 54
48 65 -9 23 -123 94 -178 110 -63 19 -173 27 -229 16z m-60 -95 c30 -30 52
-55 49 -55 -2 0 -29 25 -59 55 -30 30 -52 55 -49 55 2 0 29 -25 59 -55z"/>
<path d="M4205 3899 c-259 -58 -405 -285 -341 -527 43 -162 178 -276 358 -304
228 -35 435 85 503 291 28 84 18 217 -21 302 -58 123 -171 208 -312 235 -82
16 -128 16 -187 3z m199 -173 c87 -36 147 -131 148 -234 1 -80 -16 -131 -58
-180 -56 -66 -104 -87 -199 -87 -70 0 -86 4 -128 28 -118 70 -161 229 -98 360
54 112 211 165 335 113z"/>
<path d="M4890 3485 l0 -405 85 0 85 0 0 237 c0 162 3 234 10 227 6 -6 61 -93
123 -195 l113 -184 41 -3 c37 -3 43 0 63 32 12 20 18 41 14 47 -4 7 -3 10 2 7
5 -4 36 38 69 93 104 171 129 209 134 203 6 -5 8 -72 10 -301 l1 -162 85 -3
85 -3 0 274 0 274 -27 -24 -28 -24 28 31 c26 29 27 33 27 157 l0 127 -78 0
-78 0 -148 -250 c-82 -137 -151 -250 -155 -250 -3 0 -73 113 -155 250 l-150
250 -78 0 -78 0 0 -405z m840 62 c0 -2 -12 -14 -27 -28 l-28 -24 24 28 c23 25
31 32 31 24z"/>
<path d="M6010 3864 l0 -27 28 24 27 24 -27 -31 -28 -30 0 -372 0 -372 90 0
90 0 1 103 c1 56 1 105 0 110 0 4 48 7 108 7 174 0 262 25 337 98 82 79 103
217 50 326 -31 64 -69 99 -146 135 -54 25 -61 26 -292 29 l-238 4 0 -28z m444
-144 c16 -8 39 -28 50 -43 29 -39 28 -122 -2 -164 -33 -46 -72 -58 -197 -58
l-110 0 -3 129 c-1 72 0 136 3 144 7 20 218 13 259 -8z"/>
<path d="M6840 3643 c0 -281 11 -356 60 -432 55 -87 148 -137 275 -148 151
-12 285 44 350 147 49 77 55 123 55 412 l0 268 -90 0 -90 0 0 -217 c0 -210 1
-217 23 -242 20 -24 20 -24 1 -8 -21 18 -22 18 -29 -30 -15 -102 -61 -157
-139 -168 -104 -16 -190 32 -215 120 -6 24 -11 129 -11 255 l0 216 -38 37
c-35 34 -43 37 -95 37 l-57 0 0 -247z m656 -285 l29 -33 -32 29 c-18 17 -33
31 -33 33 0 8 8 1 36 -29z"/>
<path d="M6970 3887 c0 -2 14 -16 30 -32 l30 -29 0 32 c0 29 -3 32 -30 32 -16
0 -30 -1 -30 -3z"/>
<path d="M7670 3815 l0 -75 130 0 130 0 0 -332 0 -333 90 3 90 3 2 327 3 327
133 3 132 3 0 74 0 75 -355 0 -355 0 0 -75z"/>
<path d="M8480 3485 l0 -405 168 -1 c184 -2 178 -2 345 0 l117 1 0 70 0 70
-220 0 -220 0 0 100 0 100 190 0 190 0 0 70 0 70 -190 0 -190 0 0 90 0 90 215
0 215 0 0 75 0 75 -310 0 -310 0 0 -405z"/>
<path d="M9270 3485 l0 -406 92 3 92 3 1 107 c0 60 3 108 8 108 4 0 44 0 90 0
l82 0 75 -107 75 -108 98 -3 c53 -1 97 0 97 2 0 3 -39 61 -86 128 l-86 122 23
16 c100 64 142 137 143 245 1 116 -52 203 -157 256 l-40 21 -65 -65 -65 -65
41 -11 c75 -21 115 -96 93 -179 -21 -77 -86 -104 -233 -100 l-92 3 1 43 c1 23
-2 42 -5 42 -4 0 -45 -37 -92 -82 l-85 -83 89 92 89 91 -1 64 c-1 34 1 75 4
91 6 27 6 27 93 27 l87 0 64 65 c35 35 60 68 56 72 -4 5 -115 9 -247 11 l-239
4 0 -407z"/>
<path d="M4180 2764 c0 -9 22 -46 69 -119 36 -55 46 -80 47 -115 2 -66 3 -70
14 -70 6 0 10 23 10 51 0 44 8 64 58 147 69 117 67 113 48 106 -8 -3 -36 -43
-62 -90 -26 -46 -50 -81 -54 -79 -4 2 -28 40 -53 83 -25 44 -53 82 -61 85 -9
4 -16 4 -16 1z"/>
<path d="M4566 2760 c-16 -5 -40 -19 -53 -32 -106 -99 -42 -262 102 -262 61 0
128 35 118 61 -4 11 -2 14 5 9 17 -10 32 28 32 84 0 64 -26 105 -84 131 -44
20 -75 22 -120 9z m121 -40 c18 -10 38 -32 46 -47 14 -28 32 -127 19 -105 -5
7 -12 0 -20 -18 -19 -43 -59 -64 -119 -64 -37 0 -58 5 -73 19 -70 63 -65 172
9 218 36 22 99 21 138 -3z"/>
<path d="M4856 2763 c-12 -13 -6 -203 8 -238 19 -45 66 -69 123 -62 94 10 128
92 107 251 -11 77 -24 51 -24 -48 0 -145 -18 -176 -100 -176 -30 0 -47 6 -65
25 -24 23 -25 31 -25 134 0 100 -6 131 -24 114z"/>
<path d="M5200 2620 c0 -93 4 -150 10 -150 6 0 10 20 10 45 l0 45 59 0 59 0
32 -50 c18 -27 38 -50 46 -50 20 0 18 6 -17 56 l-30 45 30 28 c25 23 31 37 31
69 0 76 -56 111 -177 112 l-53 0 0 -150z m174 99 c32 -25 37 -86 7 -113 -19
-17 -148 -38 -156 -25 -3 4 -2 41 2 83 l6 76 57 0 c43 0 64 -5 84 -21z"/>
<path d="M5587 2764 c-16 -16 -4 -23 46 -26 60 -3 54 13 56 -165 1 -68 5 -113
11 -113 6 0 10 53 10 140 l0 140 55 0 c53 0 74 13 37 22 -31 8 -207 10 -215 2z"/>
<path d="M6245 2758 c-98 -35 -132 -147 -73 -234 42 -62 149 -82 213 -40 22
14 25 24 25 71 0 42 -3 55 -15 55 -11 0 -15 -13 -15 -54 0 -40 -4 -55 -16 -60
-31 -12 -106 -6 -135 11 -66 39 -77 140 -21 196 38 37 112 48 160 23 37 -19
53 -4 19 18 -31 21 -105 28 -142 14z"/>
<path d="M6767 2763 c-4 -3 -7 -73 -7 -155 0 -125 2 -148 15 -148 13 0 15 24
15 155 0 142 -4 168 -23 148z"/>
<path d="M6894 2757 c-2 -7 -3 -75 -2 -152 2 -100 6 -140 16 -143 9 -3 12 25
12 118 0 67 4 120 9 118 9 -3 81 -91 150 -180 24 -32 47 -58 51 -58 16 0 20
34 20 155 0 68 -3 130 -6 139 -16 40 -24 6 -26 -111 l-3 -127 -100 126 c-55
70 -104 127 -108 128 -4 0 -10 -6 -13 -13z"/>
<path d="M7257 2764 c-4 -4 -7 -74 -7 -156 l0 -148 105 0 c87 0 105 3 105 15
0 12 -17 15 -90 15 l-90 0 0 55 0 55 74 0 c56 0 75 4 80 15 4 13 -8 15 -74 15
l-80 0 0 55 0 55 86 0 c64 0 85 3 82 13 -5 13 -178 23 -191 11z"/>
<path d="M7657 2763 c-4 -3 -7 -73 -7 -155 0 -125 2 -148 15 -148 12 0 15 14
15 70 l0 70 100 0 100 0 0 -70 c0 -38 4 -70 9 -70 11 0 17 119 13 228 -4 90
-22 96 -22 7 l0 -65 -100 0 -100 0 0 70 c0 64 -6 81 -23 63z"/>
<path d="M8015 2762 c-3 -3 -5 -72 -5 -154 l0 -149 87 2 c48 1 96 4 106 7 38
10 -8 22 -85 22 l-78 0 0 55 0 55 75 0 c60 0 75 3 75 15 0 12 -15 15 -75 15
l-75 0 0 55 0 55 85 0 c67 0 85 3 85 14 0 12 -19 14 -95 14 -52 -1 -97 -3
-100 -6z"/>
<path d="M8300 2613 c0 -129 2 -153 15 -153 11 0 15 12 15 50 l0 50 58 0 57 0
30 -50 c16 -28 35 -50 42 -50 17 0 6 27 -30 73 -16 20 -24 37 -17 37 6 0 22
11 35 25 32 31 34 91 5 128 -23 29 -100 50 -169 46 l-41 -3 0 -153z m189 101
c15 -19 19 -35 15 -58 -8 -45 -31 -77 -51 -69 -12 5 -14 3 -8 -8 7 -11 6 -12
-6 -3 -8 6 -35 9 -61 8 l-48 -4 0 80 0 80 69 0 c63 0 71 -2 90 -26z"/>
<path d="M8620 2755 c0 -5 -2 -68 -4 -139 -2 -71 -2 -135 1 -143 8 -20 213
-19 213 2 0 12 -17 15 -95 15 l-95 0 0 58 0 57 80 -3 c68 -4 80 -2 80 12 0 13
-13 16 -80 16 l-81 0 3 57 3 56 88 -2 c56 -1 87 2 87 8 0 13 -8 14 -117 15
-49 1 -83 -3 -83 -9z"/>
<path d="M5941 2743 c-24 -46 -121 -265 -121 -274 0 -24 23 -4 41 35 l19 45
86 -1 85 -2 19 -43 c10 -24 26 -43 34 -43 16 0 11 14 -77 203 -46 97 -66 116
-86 80z m38 -35 c5 -13 21 -49 35 -80 l26 -58 -75 0 -74 0 26 58 c14 31 29 67
34 80 5 12 11 22 14 22 3 0 9 -10 14 -22z"/>
<path d="M6510 2610 l0 -151 95 3 c119 4 126 22 10 26 l-85 3 0 134 c0 83 -4
135 -10 135 -6 0 -10 -57 -10 -150z"/>
</g>
</svg>
